<svg width="177" height="33" viewBox="0 0 177 33" fill="none" xmlns="http://www.w3.org/2000/svg">
<path d="M0.851562 12.4865V0.297008H5.27191C6.96737 0.209016 8.63048 0.783643 9.90851 1.89901C10.4941 2.48031 10.9496 3.17886 11.245 3.94862C11.5404 4.71837 11.669 5.54186 11.6223 6.36483C11.6672 7.19018 11.5379 8.01574 11.2426 8.788C10.9474 9.56026 10.4929 10.262 9.90851 10.8477C9.28251 11.4131 8.55042 11.849 7.75458 12.1303C6.95873 12.4116 6.11492 12.5326 5.27191 12.4864L0.851562 12.4865ZM3.37755 10.2897H5.27192C7.63499 10.2897 9.04255 8.75941 9.04255 6.36488C9.09525 5.85284 9.03482 5.33549 8.86554 4.84927C8.69625 4.36305 8.42222 3.91978 8.06274 3.55067C7.70326 3.18157 7.26708 2.89561 6.7849 2.71292C6.30272 2.53023 5.78627 2.45527 5.27192 2.4933H3.37755V10.2897Z" fill="#F3F4F6"/>
<path d="M18.8905 7.62512L23.6352 12.3424V12.4864H20.5686L15.7877 7.35506V12.4864H13.2617V0.296997H18.5838C21.3803 0.296997 23.2385 1.57532 23.2385 4.04212C23.2567 4.53007 23.1659 5.01596 22.9724 5.46446C22.7789 5.91296 22.4878 6.31279 22.12 6.63489C21.343 7.31164 20.3359 7.66595 19.3054 7.62512H18.8905ZM15.7877 5.7887H18.5838C19.7927 5.7887 20.6587 5.19446 20.6587 4.11389C20.6587 3.03381 19.7565 2.42151 18.5838 2.42151H15.7877V5.7887Z" fill="#F3F4F6"/>
<path d="M30.3424 12.7745C29.514 12.8085 28.6879 12.6655 27.9194 12.355C27.1509 12.0445 26.4577 11.5737 25.8863 10.9742C24.7281 9.72352 24.1119 8.06679 24.172 6.36481C24.1422 5.52736 24.2782 4.69227 24.5724 3.90742C24.8666 3.12256 25.3131 2.40337 25.8863 1.79108C26.4613 1.19743 27.1556 0.731777 27.9235 0.424636C28.6914 0.117494 29.5157 -0.0241995 30.3424 0.00884503C31.17 -0.0231507 31.9952 0.117184 32.7655 0.420912C33.5358 0.724641 34.2343 1.18511 34.8166 1.77301C35.3885 2.38907 35.8327 3.11191 36.1238 3.89994C36.4148 4.68798 36.5468 5.52566 36.5123 6.36481C36.5786 8.06438 35.969 9.7212 34.8166 10.9742C34.2415 11.574 33.5451 12.0447 32.7737 12.3551C32.0023 12.6655 31.1735 12.8085 30.3424 12.7745ZM32.9941 9.29938C33.6498 8.46535 33.9829 7.42371 33.9325 6.36481C33.986 5.31087 33.6524 4.27366 32.9941 3.44781C32.6651 3.07414 32.2557 2.77961 31.7965 2.58631C31.3372 2.393 30.8401 2.30592 30.3424 2.3316C29.8472 2.30587 29.3527 2.39301 28.8963 2.58641C28.4399 2.7798 28.0336 3.07439 27.7083 3.44781C27.0444 4.27153 26.7044 5.30873 26.7523 6.36481C26.7164 7.41906 27.055 8.45204 27.7083 9.28131C28.0427 9.64844 28.45 9.9421 28.9044 10.1436C29.3587 10.3451 29.8501 10.45 30.3472 10.4517C30.8444 10.4534 31.3364 10.3519 31.7921 10.1535C32.2478 9.95508 32.6572 9.66422 32.9941 9.29938Z" fill="#F3F4F6"/>
<path d="M39.249 10.9918C38.6752 10.3698 38.23 9.64096 37.9389 8.84698C37.6478 8.05299 37.5166 7.20949 37.5527 6.3648C37.518 5.52148 37.6517 4.67968 37.9459 3.88836C38.2401 3.09705 38.689 2.37202 39.2666 1.75543C39.8586 1.16656 40.567 0.707162 41.3466 0.406461C42.1263 0.105761 42.9601 -0.0296517 43.795 0.00884412C45.3718 -0.0343333 46.925 0.398622 48.2511 1.25104V3.6817H48.1249C46.9454 2.75578 45.4752 2.27738 43.9756 2.33161C41.5401 2.33161 40.1325 3.898 40.1325 6.3648C40.0881 7.42587 40.4276 8.46749 41.089 9.29938C41.4068 9.68413 41.8108 9.98891 42.2683 10.1891C42.7259 10.3893 43.2243 10.4792 43.7231 10.4517C44.1136 10.4894 44.5078 10.4462 44.8807 10.3247C45.2537 10.2032 45.5975 10.0061 45.8906 9.74568C46.1836 9.48531 46.4196 9.1673 46.5836 8.81161C46.7477 8.45591 46.8364 8.07022 46.844 7.67872H42.8929V5.64417H49.2976V7.15687C49.3316 7.90344 49.2132 8.64912 48.9496 9.34864C48.686 10.0482 48.2828 10.6869 47.7643 11.2262C47.2323 11.7459 46.5993 12.1515 45.9043 12.4178C45.2093 12.6841 44.467 12.8055 43.7231 12.7745C42.8933 12.8111 42.0652 12.671 41.2938 12.3636C40.5224 12.0563 39.8254 11.5887 39.249 10.9918Z" fill="#F3F4F6"/>
<path d="M49.4219 12.4864V12.3424L53.968 0.296997H57.0532L61.5992 12.3424V12.4864H58.9475L58.0635 9.98347H52.9758L52.0736 12.4864H49.4219ZM53.6793 7.94881H57.3418L55.5193 2.87167L53.6793 7.94881Z" fill="#F3F4F6"/>
<path d="M66.9141 12.4864V0.296949H72.2361C73.4373 0.241566 74.6232 0.58329 75.6099 1.26912C76.0368 1.60562 76.3761 2.03987 76.5991 2.53508C76.8221 3.03028 76.9221 3.57184 76.8908 4.11384C76.8908 6.63484 75.0326 7.93123 72.2361 7.93123H69.44V12.4864H66.9141ZM69.44 5.78865H72.2361C73.6256 5.78865 74.311 5.23005 74.311 4.11384C74.311 3.03376 73.4088 2.42146 72.2361 2.42146H69.44V5.78865Z" fill="#F3F4F6"/>
<path d="M78.2969 12.4865V0.296997H80.8229V5.19446H86.1268V0.296997H88.6523V12.4865H86.1268V7.40881H80.8229V12.4865H78.2969Z" fill="#F3F4F6"/>
<path d="M89.8203 12.4864V12.3424L94.3664 0.296997H97.4516L101.998 12.3424V12.4864H99.3459L98.4614 9.98347H93.3742L92.472 12.4864H89.8203ZM94.0777 7.94881H97.7402L95.9173 2.87167L94.0777 7.94881Z" fill="#F3F4F6"/>
<path d="M108.793 7.62512L113.538 12.3424V12.4864H110.471L105.691 7.35506V12.4864H103.164V0.296997H108.487C111.284 0.296997 113.142 1.57532 113.142 4.04212C113.16 4.53014 113.069 5.01606 112.875 5.46456C112.682 5.91305 112.39 6.31285 112.022 6.63489C111.246 7.31185 110.239 7.6662 109.208 7.62512H108.793ZM105.691 5.7887H108.487C109.696 5.7887 110.561 5.19446 110.561 4.11389C110.561 3.03381 109.659 2.42151 108.487 2.42151H105.691V5.7887Z" fill="#F3F4F6"/>
<path d="M114.871 12.4865V0.296997H117.704L121.348 7.93128L124.993 0.296997H127.771V12.4865H125.335V4.50989L121.42 12.4865H121.24L117.307 4.50989V12.4865H114.871Z" fill="#F3F4F6"/>
<path d="M128.938 12.4864V12.3424L133.485 0.296997H136.569L141.116 12.3424V12.4864H138.463L137.58 9.98347H132.492L131.59 12.4864H128.938ZM133.196 7.94881H136.857L135.035 2.87167L133.196 7.94881Z" fill="#F3F4F6"/>
<path d="M146.434 12.4864V0.296949H151.756C152.957 0.241567 154.143 0.583291 155.129 1.26912C155.556 1.60555 155.896 2.03979 156.119 2.53501C156.342 3.03023 156.442 3.57182 156.41 4.11384C156.41 6.63484 154.552 7.93123 151.756 7.93123H148.959V12.4864H146.434ZM148.959 5.78865H151.756C153.145 5.78865 153.831 5.23005 153.831 4.11384C153.831 3.03376 152.929 2.42146 151.756 2.42146H148.959V5.78865Z" fill="#F3F4F6"/>
<path d="M157.812 12.4865V0.296997H160.338V10.2897H165.931V12.4865H157.812Z" fill="#F3F4F6"/>
<path d="M168.057 10.9742C166.9 9.7232 166.284 8.06663 166.344 6.36484C166.314 5.52748 166.45 4.69248 166.744 3.90765C167.038 3.12283 167.484 2.40358 168.057 1.79111C168.632 1.19758 169.327 0.731999 170.094 0.424866C170.862 0.117733 171.687 -0.0240267 172.513 0.00887693C173.822 -0.0586922 175.121 0.260648 176.248 0.926876V3.2677H176.122C175.117 2.6394 173.952 2.31436 172.766 2.3317C170.33 2.3317 168.923 3.8981 168.923 6.3649C168.923 8.86734 170.33 10.4518 172.766 10.4518C173.952 10.4691 175.117 10.1441 176.122 9.51581H176.248V11.8561C175.121 12.5228 173.822 12.8423 172.513 12.7746C171.685 12.8085 170.859 12.6654 170.09 12.3549C169.322 12.0444 168.629 11.5737 168.057 10.9742Z" fill="#F3F4F6"/>
<path d="M1.22656 28.546V27.4581H1.29458C2.40633 28.2476 3.74585 28.6534 5.10972 28.6139C5.85877 28.6354 6.59811 28.4406 7.23893 28.0529C7.51952 27.8936 7.75065 27.6603 7.90689 27.3784C8.06313 27.0965 8.13842 26.777 8.12446 26.4552C8.12446 25.486 7.40919 24.806 5.97863 24.4152L4.03679 23.9054C2.35084 23.4464 1.27744 22.4606 1.27744 20.9138C1.25332 20.4583 1.34539 20.0042 1.54503 19.5939C1.74467 19.1837 2.04535 18.8307 2.41892 18.568C3.24862 17.999 4.24034 17.7128 5.24627 17.7521C6.52415 17.7053 7.78164 18.0818 8.82267 18.8229V19.9107H8.75467C7.72724 19.1231 6.45563 18.72 5.16114 18.7716C3.61121 18.7716 2.4018 19.5196 2.4018 20.8795C2.4018 21.8653 3.09995 22.5455 4.47963 22.9195L6.40432 23.4293C8.12452 23.8883 9.24881 24.8741 9.24881 26.421C9.26689 26.889 9.16154 27.3535 8.94329 27.7682C8.72504 28.1828 8.40154 28.533 8.00514 28.7837C7.12137 29.363 6.08164 29.6595 5.02464 29.6338C3.67571 29.6771 2.3472 29.2966 1.22656 28.546Z" fill="#F3F4F6"/>
<path d="M12.212 28.3248C11.4232 27.404 11.0099 26.221 11.054 25.0104C11.0116 23.8137 11.4049 22.6422 12.1612 21.7125C12.5258 21.2828 12.9837 20.9417 13.5001 20.7148C14.0165 20.488 14.5779 20.3815 15.1417 20.4034C17.6114 20.4034 18.9226 22.1036 18.9226 24.755C18.9226 24.9591 18.9059 25.1803 18.8888 25.401H12.1098C12.0927 25.8386 12.1674 26.2748 12.329 26.6819C12.4906 27.089 12.7355 27.4579 13.0481 27.7651C13.3608 28.0723 13.7342 28.311 14.1446 28.4659C14.555 28.6208 14.9932 28.6885 15.4313 28.6647C16.5829 28.722 17.7121 28.3321 18.582 27.5768H18.65V28.6139C17.6907 29.3322 16.5098 29.693 15.3119 29.6339C14.7302 29.6593 14.1501 29.5551 13.6139 29.3286C13.0777 29.1022 12.5988 28.7592 12.212 28.3248ZM17.8839 24.5001C17.8839 22.5284 16.9812 21.3385 15.1416 21.3385C13.3534 21.3385 12.2291 22.6134 12.1098 24.5001H17.8839Z" fill="#F3F4F6"/>
<path d="M21.4102 29.4126V20.6075H22.4659V22.3921C22.6315 21.8302 22.9712 21.335 23.4363 20.9777C23.9014 20.6204 24.4679 20.4193 25.0546 20.4033C25.3741 20.3864 25.6922 20.457 25.9744 20.6075V21.5083H25.9064C25.661 21.4194 25.4006 21.3789 25.1397 21.3892C24.7585 21.3691 24.3783 21.444 24.0334 21.6073C23.6885 21.7705 23.3897 22.0169 23.1641 22.3242C22.6813 23.0221 22.4364 23.8566 22.466 24.7041V29.4126L21.4102 29.4126Z" fill="#F3F4F6"/>
<path d="M30.8472 29.4127L27.1172 20.6754V20.6075H28.2924L31.4265 28.2906L34.5772 20.6075H35.7524V20.6754L32.0053 29.4127H30.8472Z" fill="#F3F4F6"/>
<path d="M37.5234 18.7716C37.5231 18.671 37.5427 18.5714 37.5811 18.4784C37.6195 18.3854 37.6759 18.301 37.7472 18.2299C37.8185 18.1588 37.9031 18.1025 37.9963 18.0642C38.0895 18.026 38.1893 18.0065 38.2901 18.0069C39.3121 17.939 39.3121 19.6046 38.2901 19.5196C38.1902 19.5219 38.0909 19.5043 37.9979 19.4677C37.905 19.4312 37.8203 19.3764 37.7489 19.3067C37.6774 19.237 37.6207 19.1538 37.582 19.0619C37.5433 18.97 37.5234 18.8713 37.5234 18.7716ZM37.7793 29.4127V20.6075H38.8351V29.4127H37.7793Z" fill="#F3F4F6"/>
<path d="M41.8164 29.4127V20.6075H42.8727V22.1373C43.2389 21.4769 43.817 20.9585 44.514 20.6656C45.211 20.3727 45.9865 20.3222 46.7158 20.5224C47.445 20.7225 48.0856 21.1615 48.5346 21.7689C48.9836 22.3763 49.2149 23.1168 49.1913 23.8712V29.4127H48.1355V24.1432C48.1355 22.4435 47.2329 21.3556 45.6149 21.3556C45.2466 21.341 44.8792 21.4036 44.5365 21.5392C44.1938 21.6748 43.8833 21.8805 43.6251 22.1431C43.3668 22.4056 43.1664 22.7192 43.0368 23.0637C42.9073 23.4081 42.8514 23.7759 42.8727 24.1432V29.4127H41.8164Z" fill="#F3F4F6"/>
<path d="M51.9667 31.2486V30.2286H52.0348C52.9335 30.9926 54.0924 31.3821 55.2711 31.3165C57.2976 31.3165 58.3368 30.2115 58.3368 28.1207V26.8799C58.0828 27.4833 57.6493 27.9943 57.0949 28.3439C56.5405 28.6934 55.892 28.8647 55.2369 28.8345C54.7217 28.8582 54.2079 28.7633 53.7353 28.557C53.2628 28.3507 52.8441 28.0387 52.5118 27.6451C51.8268 26.7945 51.4702 25.7269 51.5069 24.6363C51.4674 23.5348 51.8238 22.4555 52.5118 21.5933C52.843 21.1982 53.2614 20.8851 53.7342 20.6787C54.207 20.4722 54.7214 20.3779 55.2369 20.4033C55.8852 20.3486 56.5343 20.5 57.0911 20.8359C57.648 21.1719 58.084 21.675 58.3368 22.2734V20.6074H59.3926V28.0869C59.3926 30.8066 57.962 32.268 55.254 32.268C54.0698 32.3445 52.899 31.9814 51.9667 31.2486ZM57.5872 26.9649C58.1089 26.2962 58.3907 25.4722 58.3876 24.6248C58.3845 23.7773 58.0966 22.9554 57.5701 22.2906C57.306 21.9836 56.9759 21.7401 56.6043 21.5781C56.2328 21.4162 55.8294 21.3401 55.4243 21.3555C53.6361 21.3555 52.5626 22.7154 52.5626 24.6363C52.5626 26.5572 53.6018 27.9 55.4243 27.9C55.8321 27.9171 56.2386 27.8419 56.6132 27.68C56.9878 27.518 57.3208 27.2736 57.5872 26.9649Z" fill="#F3F4F6"/>
<path d="M67.504 27.3898V21.5084H65.75V20.6076H67.504L67.5724 18.2618H68.5769V20.6076H71.3534V21.5084H68.5769V27.1862C68.5769 28.1891 69.1053 28.5797 70.144 28.5797C70.5272 28.5923 70.9105 28.5581 71.2854 28.4777H71.3534V29.362C70.8637 29.4858 70.3594 29.543 69.8543 29.5319C68.3729 29.5319 67.504 28.8009 67.504 27.3898Z" fill="#F3F4F6"/>
<path d="M73.4961 29.4127V17.6158H74.5524V22.1373C74.9186 21.4769 75.4966 20.9585 76.1937 20.6656C76.8907 20.3727 77.6662 20.3223 78.3954 20.5224C79.1247 20.7225 79.7653 21.1615 80.2143 21.7689C80.6633 22.3763 80.8946 23.1168 80.871 23.8712V29.4127H79.8152V24.1432C79.8152 22.4435 78.9126 21.3556 77.2946 21.3556C76.9262 21.341 76.5589 21.4036 76.2162 21.5392C75.8735 21.6749 75.563 21.8806 75.3047 22.1431C75.0465 22.4057 74.8461 22.7192 74.7165 23.0637C74.5869 23.4082 74.531 23.7759 74.5524 24.1432V29.4127H73.4961Z" fill="#F3F4F6"/>
<path d="M84.3487 28.3248C83.56 27.404 83.1466 26.221 83.1907 25.0104C83.1483 23.8137 83.5416 22.6422 84.2979 21.7125C84.6625 21.2828 85.1204 20.9417 85.6368 20.7148C86.1532 20.488 86.7146 20.3815 87.2784 20.4034C89.7481 20.4034 91.0593 22.1036 91.0593 24.755C91.0593 24.9591 91.0426 25.1803 91.0255 25.401H84.2465C84.2295 25.8386 84.3041 26.2748 84.4657 26.6819C84.6273 27.089 84.8722 27.4579 85.1849 27.7651C85.4975 28.0723 85.871 28.311 86.2813 28.4659C86.6917 28.6208 87.1299 28.6885 87.568 28.6647C88.7197 28.722 89.8488 28.3321 90.7188 27.5768H90.7868V28.6139C89.8274 29.3322 88.6465 29.693 87.4486 29.6339C86.8669 29.6593 86.2869 29.5551 85.7506 29.3286C85.2144 29.1022 84.7355 28.7592 84.3487 28.3248ZM90.0206 24.5001C90.0206 22.5284 89.1179 21.3385 87.2784 21.3385C85.4902 21.3385 84.3659 22.6134 84.2465 24.5001H90.0206Z" fill="#F3F4F6"/>
<path d="M98.0938 32.0475V20.6075H99.1495V22.4605C99.4188 21.843 99.8646 21.3184 100.431 20.9525C100.998 20.5866 101.66 20.3956 102.335 20.4034C102.875 20.3814 103.414 20.4905 103.903 20.7215C104.393 20.9525 104.819 21.2984 105.145 21.7296C105.83 22.6842 106.183 23.8366 106.15 25.0104C106.188 26.1847 105.835 27.3385 105.145 28.2906C104.819 28.7219 104.393 29.0678 103.903 29.2987C103.414 29.5297 102.875 29.6388 102.335 29.6168C101.661 29.628 101 29.4404 100.433 29.0774C99.8663 28.7144 99.4198 28.1923 99.1495 27.5768V32.0475H98.0938ZM104.327 27.611C104.828 26.8356 105.094 25.9326 105.094 25.0101C105.094 24.0876 104.828 23.1847 104.327 22.4093C104.078 22.0686 103.749 21.7943 103.369 21.6105C102.988 21.4267 102.569 21.3392 102.147 21.3556C101.717 21.3373 101.289 21.4238 100.901 21.6073C100.512 21.7909 100.174 22.0662 99.9157 22.4093C99.3838 23.1727 99.0987 24.0803 99.0987 25.0101C99.0987 25.94 99.3838 26.8476 99.9157 27.611C100.174 27.9541 100.512 28.2293 100.901 28.4129C101.289 28.5965 101.717 28.6829 102.147 28.6647C102.569 28.6811 102.988 28.5935 103.369 28.4098C103.749 28.226 104.078 27.9517 104.327 27.611Z" fill="#F3F4F6"/>
<path d="M109.114 28.3249C108.325 27.404 107.912 26.221 107.956 25.0104C107.914 23.8137 108.307 22.6421 109.063 21.7126C109.428 21.2828 109.885 20.9415 110.402 20.7147C110.918 20.4879 111.48 20.3815 112.044 20.4035C114.513 20.4035 115.824 22.1037 115.824 24.755C115.824 24.9591 115.808 25.1803 115.79 25.401H109.012C108.995 25.8386 109.069 26.2749 109.231 26.682C109.393 27.0891 109.637 27.4581 109.95 27.7653C110.263 28.0725 110.636 28.3112 111.046 28.4661C111.457 28.621 111.895 28.6886 112.333 28.6647C113.485 28.722 114.614 28.3322 115.484 27.5768H115.552V28.6139C114.593 29.3322 113.412 29.693 112.214 29.6339C111.632 29.6594 111.052 29.5551 110.516 29.3287C109.98 29.1022 109.501 28.7593 109.114 28.3249ZM114.785 24.5001C114.785 22.5285 113.883 21.3385 112.044 21.3385C110.255 21.3385 109.132 22.6134 109.012 24.5001H114.785Z" fill="#F3F4F6"/>
<path d="M118.911 28.3077C118.14 27.3807 117.719 26.2143 117.719 25.0101C117.719 23.8058 118.14 22.6394 118.911 21.7125C119.295 21.2839 119.768 20.9446 120.298 20.7184C120.827 20.4922 121.4 20.3847 121.976 20.4034C122.557 20.3845 123.135 20.4918 123.67 20.7178C124.206 20.9438 124.685 21.2832 125.076 21.7125C125.836 22.644 126.251 23.8087 126.251 25.0101C126.251 26.2114 125.836 27.3761 125.076 28.3077C124.689 28.7423 124.21 29.0864 123.674 29.3156C123.138 29.5448 122.559 29.6534 121.976 29.6338C121.399 29.6532 120.824 29.5443 120.294 29.315C119.764 29.0856 119.291 28.7416 118.911 28.3077ZM124.327 27.6109C124.891 26.8606 125.195 25.948 125.195 25.0101C125.195 24.0721 124.891 23.1595 124.327 22.4092C124.04 22.0674 123.68 21.795 123.273 21.6125C122.866 21.4299 122.422 21.3421 121.976 21.3555C121.535 21.3405 121.096 21.4278 120.694 21.6107C120.292 21.7935 119.938 22.0668 119.66 22.4092C119.086 23.1551 118.775 24.0694 118.775 25.0101C118.775 25.9507 119.086 26.865 119.66 27.6109C119.938 27.9533 120.292 28.2266 120.694 28.4095C121.096 28.5923 121.535 28.6796 121.976 28.6646C122.422 28.678 122.866 28.5902 123.273 28.4077C123.68 28.2251 124.04 27.9527 124.327 27.6109Z" fill="#F3F4F6"/>
<path d="M128.652 32.0475V20.6075H129.708V22.4605C129.977 21.843 130.423 21.3184 130.99 20.9525C131.556 20.5866 132.218 20.3956 132.893 20.4034C133.434 20.3814 133.972 20.4905 134.462 20.7215C134.951 20.9525 135.377 21.2984 135.703 21.7296C136.388 22.6842 136.741 23.8366 136.708 25.0104C136.747 26.1847 136.393 27.3385 135.703 28.2906C135.377 28.7219 134.951 29.0678 134.462 29.2987C133.972 29.5297 133.434 29.6388 132.893 29.6168C132.22 29.628 131.558 29.4404 130.992 29.0774C130.425 28.7144 129.978 28.1923 129.708 27.5768V32.0475H128.652ZM134.885 27.611C135.386 26.8356 135.652 25.9326 135.652 25.0101C135.652 24.0876 135.386 23.1847 134.885 22.4093C134.637 22.0686 134.307 21.7943 133.927 21.6105C133.547 21.4267 133.127 21.3392 132.705 21.3556C132.276 21.3374 131.848 21.4238 131.459 21.6073C131.071 21.7909 130.733 22.0662 130.474 22.4093C129.942 23.1727 129.657 24.0803 129.657 25.0101C129.657 25.94 129.942 26.8476 130.474 27.611C130.733 27.9541 131.071 28.2293 131.459 28.4129C131.848 28.5965 132.276 28.6829 132.705 28.6647C133.127 28.6811 133.547 28.5935 133.927 28.4098C134.307 28.226 134.637 27.9517 134.885 27.611Z" fill="#F3F4F6"/>
<path d="M139.109 29.4127V17.6158H140.164V29.4127H139.109Z" fill="#F3F4F6"/>
<path d="M143.727 28.3249C142.939 27.404 142.525 26.221 142.57 25.0104C142.527 23.8137 142.92 22.6421 143.676 21.7126C144.041 21.2828 144.499 20.9415 145.015 20.7147C145.532 20.4879 146.093 20.3815 146.657 20.4035C149.127 20.4035 150.438 22.1037 150.438 24.755C150.438 24.9591 150.421 25.1803 150.403 25.401H143.625C143.608 25.8386 143.683 26.2749 143.844 26.682C144.006 27.0891 144.251 27.4581 144.563 27.7653C144.876 28.0725 145.249 28.3112 145.66 28.4661C146.07 28.621 146.508 28.6886 146.946 28.6647C148.098 28.722 149.227 28.3322 150.097 27.5768H150.166V28.6139C149.206 29.3322 148.025 29.693 146.827 29.6339C146.245 29.6594 145.665 29.5551 145.129 29.3287C144.593 29.1022 144.114 28.7593 143.727 28.3249ZM149.399 24.5001C149.399 22.5285 148.496 21.3385 146.657 21.3385C144.868 21.3385 143.745 22.6134 143.625 24.5001H149.399Z" fill="#F3F4F6"/>
</svg>
