

<svg width="201" height="35" viewBox="0 0 201 35" fill="none" xmlns="http://www.w3.org/2000/svg">
<path d="M0 13.218V0.314491H5.04568C6.98098 0.221345 8.87937 0.829632 10.3382 2.01033C11.0066 2.62569 11.5265 3.36515 11.8637 4.18C12.2009 4.99485 12.3477 5.86657 12.2945 6.73775C12.3457 7.61145 12.198 8.48536 11.861 9.30286C11.524 10.1204 11.0052 10.8632 10.3382 11.4833C9.62364 12.0818 8.78799 12.5432 7.87956 12.841C6.97112 13.1387 6.00794 13.2668 5.04568 13.2179L0 13.218ZM2.88333 10.8925H5.04569C7.74305 10.8925 9.34973 9.2726 9.34973 6.7378C9.40988 6.19576 9.34091 5.64811 9.14768 5.13341C8.95444 4.61871 8.64165 4.14947 8.23131 3.75875C7.82098 3.36802 7.32309 3.06531 6.7727 2.87192C6.22231 2.67853 5.6328 2.59918 5.04569 2.63944H2.88333V10.8925Z" fill="black"/>
<path d="M20.5891 8.07184L26.0051 13.0655V13.2179H22.5047L17.0474 7.78596V13.2179H14.1641V0.314453H20.239C23.4311 0.314453 25.5522 1.66765 25.5522 4.27895C25.573 4.79549 25.4693 5.30984 25.2485 5.78461C25.0276 6.25938 24.6953 6.68263 24.2755 7.0236C23.3885 7.73999 22.239 8.11506 21.0627 8.07184H20.5891ZM17.0474 6.12785H20.239C21.6189 6.12785 22.6074 5.49879 22.6074 4.35493C22.6074 3.21158 21.5776 2.56341 20.239 2.56341H17.0474V6.12785Z" fill="black"/>
<path d="M33.6612 13.5228C32.7156 13.5588 31.7726 13.4074 30.8954 13.0787C30.0182 12.7501 29.227 12.2517 28.5747 11.617C27.2527 10.2931 26.5493 8.53932 26.6179 6.73764C26.5838 5.85114 26.7391 4.96713 27.0749 4.1363C27.4107 3.30547 27.9204 2.54415 28.5747 1.89599C29.2311 1.26758 30.0235 0.774644 30.9001 0.449511C31.7767 0.124377 32.7176 -0.025616 33.6612 0.00936417C34.6059 -0.0245058 35.5478 0.124049 36.4271 0.445569C37.3064 0.76709 38.1037 1.25453 38.7683 1.87686C39.4211 2.52902 39.9282 3.2942 40.2604 4.12839C40.5926 4.96259 40.7433 5.84934 40.7039 6.73764C40.7796 8.53677 40.0838 10.2906 38.7683 11.617C38.1119 12.2519 37.317 12.7503 36.4364 13.0789C35.5559 13.4074 34.6098 13.5588 33.6612 13.5228ZM36.688 9.84411C37.4364 8.96122 37.8166 7.85857 37.7592 6.73764C37.8203 5.62197 37.4394 4.524 36.688 3.64977C36.3125 3.25421 35.8451 2.94244 35.321 2.73781C34.7968 2.53318 34.2293 2.441 33.6612 2.46817C33.096 2.44094 32.5315 2.53318 32.0105 2.73791C31.4896 2.94264 31.0258 3.25448 30.6544 3.64977C29.8966 4.52175 29.5086 5.61971 29.5632 6.73764C29.5223 7.85365 29.9088 8.94714 30.6544 9.82498C31.0362 10.2136 31.5011 10.5245 32.0197 10.7378C32.5383 10.9511 33.0992 11.0622 33.6667 11.064C34.2342 11.0658 34.7959 10.9583 35.316 10.7482C35.8362 10.5382 36.3034 10.2303 36.688 9.84411Z" fill="black"/>
<path d="M43.8296 11.6355C43.1746 10.9771 42.6665 10.2056 42.3342 9.36507C42.002 8.52457 41.8522 7.63166 41.8934 6.7375C41.8538 5.84477 42.0063 4.95366 42.3422 4.11599C42.678 3.27833 43.1905 2.51082 43.8497 1.85811C44.5255 1.23476 45.3341 0.748442 46.224 0.430128C47.1139 0.111814 48.0657 -0.0315317 49.0188 0.00921918C50.8186 -0.0364875 52.5915 0.421829 54.1052 1.32417V3.89722H53.9611C52.6149 2.91706 50.9366 2.41065 49.2248 2.46804C46.4448 2.46804 44.8381 4.1262 44.8381 6.7375C44.7874 7.86071 45.1749 8.96335 45.9299 9.84397C46.2927 10.2513 46.7538 10.5739 47.2761 10.7858C47.7984 10.9977 48.3673 11.0929 48.9367 11.0638C49.3824 11.1037 49.8323 11.0579 50.2581 10.9293C50.6838 10.8007 51.0763 10.592 51.4108 10.3164C51.7453 10.0408 52.0146 9.70415 52.2019 9.32762C52.3892 8.9511 52.4904 8.54281 52.4991 8.12837H47.989V5.97465H55.2998V7.57595C55.3386 8.36626 55.2034 9.15562 54.9025 9.89611C54.6017 10.6366 54.1414 11.3128 53.5496 11.8836C52.9423 12.4339 52.2198 12.8631 51.4264 13.145C50.6331 13.4269 49.7858 13.5554 48.9367 13.5227C47.9895 13.5614 47.0443 13.4131 46.1637 13.0877C45.2832 12.7624 44.4876 12.2673 43.8296 11.6355Z" fill="black"/>
<path d="M55.4414 13.2179V13.0655L60.6306 0.314453H64.1523L69.3415 13.0655V13.2179H66.3146L65.3055 10.5683H59.498L58.4682 13.2179H55.4414ZM60.3011 8.41449H64.4817L62.4014 3.03994L60.3011 8.41449Z" fill="black"/>
<path d="M75.4102 13.2177V0.314257H81.4851C82.8562 0.255629 84.2099 0.617371 85.3362 1.34338C85.8235 1.69959 86.2108 2.15928 86.4653 2.68349C86.7198 3.2077 86.834 3.78098 86.7983 4.35473C86.7983 7.02341 84.6772 8.39573 81.4851 8.39573H78.2935V13.2177H75.4102ZM78.2935 6.12765H81.4851C83.0711 6.12765 83.8535 5.53633 83.8535 4.35473C83.8535 3.21138 82.8237 2.56322 81.4851 2.56322H78.2935V6.12765Z" fill="black"/>
<path d="M88.3984 13.2179V0.314453H91.2818V5.49879H97.336V0.314453H100.219V13.2179H97.3361V7.84286H91.2818V13.2179H88.3984Z" fill="black"/>
<path d="M101.555 13.2179V13.0655L106.744 0.314453H110.266L115.455 13.0655V13.2179H112.428L111.418 10.5683H105.611L104.582 13.2179H101.555ZM106.414 8.41449H110.595L108.514 3.03994L106.414 8.41449Z" fill="black"/>
<path d="M123.215 8.07184L128.631 13.0655V13.2179H125.13L119.673 7.78596V13.2179H116.789V0.314453H122.865C126.057 0.314453 128.178 1.66765 128.178 4.27895C128.199 4.79556 128.095 5.30995 127.874 5.78472C127.653 6.25948 127.32 6.6827 126.901 7.0236C126.014 7.74022 124.864 8.11533 123.688 8.07184H123.215ZM119.673 6.12785H122.865C124.244 6.12785 125.233 5.49879 125.233 4.35493C125.233 3.21158 124.203 2.56341 122.865 2.56341H119.673V6.12785Z" fill="black"/>
<path d="M130.148 13.2179V0.314453H133.382L137.541 8.39593L141.702 0.314453H144.873V13.2179H142.093V4.77412L137.624 13.2179H137.418L132.928 4.77412V13.2179H130.148Z" fill="black"/>
<path d="M146.207 13.2179V13.0655L151.397 0.314453H154.918L160.108 13.0655V13.2179H157.08L156.072 10.5683H150.265L149.235 13.2179H146.207ZM151.068 8.41449H155.247L153.168 3.03994L151.068 8.41449Z" fill="black"/>
<path d="M166.176 13.2177V0.314257H172.251C173.622 0.255631 174.975 0.617372 176.102 1.34338C176.589 1.69951 176.977 2.15919 177.231 2.68342C177.486 3.20765 177.6 3.78096 177.564 4.35473C177.564 7.0234 175.443 8.39573 172.251 8.39573H169.059V13.2177H166.176ZM169.059 6.12765H172.251C173.837 6.12765 174.62 5.53633 174.62 4.35473C174.62 3.21138 173.59 2.56322 172.251 2.56322H169.059V6.12765Z" fill="black"/>
<path d="M179.168 13.2179V0.314453H182.051V10.8925H188.435V13.2179H179.168Z" fill="black"/>
<path d="M190.859 11.617C189.537 10.2928 188.835 8.53915 188.903 6.73767C188.869 5.85126 189.024 4.96735 189.36 4.13655C189.695 3.30575 190.205 2.54438 190.859 1.89603C191.515 1.26773 192.308 0.774878 193.184 0.449753C194.061 0.124629 195.002 -0.0254341 195.945 0.00939692C197.439 -0.0621302 198.922 0.275916 200.209 0.98117V3.45911H200.064C198.917 2.79401 197.587 2.44993 196.233 2.46828C193.453 2.46828 191.847 4.12644 191.847 6.73774C191.847 9.38676 193.453 11.064 196.233 11.064C197.587 11.0824 198.917 10.7383 200.064 10.0732H200.209V12.5506C198.922 13.2563 197.439 13.5945 195.945 13.5229C195 13.5588 194.057 13.4073 193.18 13.0786C192.302 12.7499 191.511 12.2516 190.859 11.617Z" fill="black"/>
<path d="M0.425781 30.2179V29.0663H0.503416C1.77245 29.902 3.30147 30.3316 4.85827 30.2898C5.71329 30.3125 6.55722 30.1063 7.28869 29.6959C7.60897 29.5274 7.87281 29.2803 8.05115 28.9819C8.22949 28.6835 8.31542 28.3454 8.2995 28.0047C8.2995 26.9787 7.48304 26.2588 5.85011 25.8452L3.63356 25.3056C1.70911 24.8197 0.483861 23.7761 0.483861 22.1386C0.456329 21.6565 0.561424 21.1758 0.789303 20.7415C1.01718 20.3072 1.3604 19.9335 1.78682 19.6554C2.73389 19.0531 3.86591 18.7501 5.01414 18.7917C6.4728 18.7422 7.90817 19.1407 9.09648 19.9252V21.0769H9.01886C7.84609 20.2431 6.39459 19.8164 4.91697 19.871C3.14778 19.871 1.76727 20.6628 1.76727 22.1024C1.76727 23.1459 2.56418 23.8659 4.13905 24.2619L6.33602 24.8015C8.29956 25.2874 9.5829 26.3309 9.5829 27.9684C9.60354 28.4639 9.48328 28.9556 9.23416 29.3946C8.98503 29.8335 8.61577 30.2042 8.1633 30.4696C7.1545 31.0828 5.96769 31.3967 4.76116 31.3695C3.2214 31.4153 1.70495 31.0125 0.425781 30.2179Z" fill="black"/>
<path d="M12.9661 29.9841C12.0658 29.0093 11.594 27.7571 11.6443 26.4755C11.5959 25.2087 12.0448 23.9685 12.9081 22.9844C13.3243 22.5296 13.847 22.1684 14.4364 21.9283C15.0259 21.6882 15.6667 21.5755 16.3102 21.5987C19.1293 21.5987 20.626 23.3985 20.626 26.2052C20.626 26.4212 20.607 26.6554 20.5875 26.889H12.8495C12.83 27.3522 12.9152 27.814 13.0996 28.2449C13.2841 28.6759 13.5637 29.0664 13.9205 29.3916C14.2774 29.7168 14.7037 29.9695 15.1721 30.1334C15.6405 30.2974 16.1408 30.3691 16.6408 30.3438C17.9554 30.4045 19.2443 29.9918 20.2373 29.1922H20.3149V30.2901C19.2198 31.0505 17.8719 31.4324 16.5046 31.3698C15.8406 31.3968 15.1784 31.2864 14.5663 31.0466C13.9543 30.8069 13.4076 30.4439 12.9661 29.9841ZM19.4404 25.9353C19.4404 23.8482 18.41 22.5885 16.3102 22.5885C14.269 22.5885 12.9857 23.9381 12.8494 25.9353H19.4404Z" fill="black"/>
<path d="M23.4688 31.1354V21.8144H24.6739V23.7036C24.8629 23.1087 25.2507 22.5846 25.7815 22.2063C26.3124 21.8281 26.959 21.6152 27.6287 21.5983C27.9934 21.5804 28.3565 21.6551 28.6787 21.8144V22.768H28.601C28.3209 22.6739 28.0237 22.6311 27.7259 22.6419C27.2908 22.6206 26.8568 22.7 26.4631 22.8728C26.0694 23.0456 25.7284 23.3064 25.4709 23.6317C24.9197 24.3704 24.6402 25.2538 24.6739 26.151V31.1353L23.4688 31.1354Z" fill="black"/>
<path d="M34.2382 31.1354L29.9805 21.8863V21.8145H31.3219L34.8994 29.9476L38.4959 21.8145H39.8373V21.8863L35.56 31.1354H34.2382Z" fill="black"/>
<path d="M41.8594 19.8712C41.859 19.7647 41.8813 19.6592 41.9251 19.5608C41.969 19.4624 42.0334 19.373 42.1148 19.2977C42.1961 19.2225 42.2928 19.1629 42.3991 19.1224C42.5055 19.0819 42.6195 19.0613 42.7345 19.0617C43.9011 18.9899 43.9011 20.753 42.7345 20.663C42.6205 20.6655 42.5071 20.6468 42.401 20.6081C42.2949 20.5694 42.1982 20.5115 42.1167 20.4377C42.0352 20.3639 41.9704 20.2758 41.9262 20.1785C41.882 20.0812 41.8593 19.9767 41.8594 19.8712ZM42.1514 31.1356V21.8146H43.3566V31.1356H42.1514Z" fill="black"/>
<path d="M46.7617 31.1357V21.8148H47.9674V23.4341C48.3854 22.735 49.0453 22.1863 49.8409 21.8763C50.6366 21.5662 51.5218 21.5128 52.3542 21.7246C53.1866 21.9364 53.9178 22.4012 54.4303 23.0442C54.9429 23.6872 55.2069 24.471 55.1799 25.2696V31.1357H53.9748V25.5575C53.9748 23.7582 52.9444 22.6066 51.0976 22.6066C50.6771 22.5912 50.2578 22.6574 49.8666 22.801C49.4754 22.9446 49.121 23.1623 48.8262 23.4403C48.5314 23.7182 48.3027 24.0502 48.1548 24.4148C48.0069 24.7794 47.9431 25.1687 47.9674 25.5575V31.1357H46.7617Z" fill="black"/>
<path d="M58.3486 33.0791V31.9994H58.4263C59.4522 32.8081 60.775 33.2205 62.1205 33.151C64.4336 33.151 65.6198 31.9812 65.6198 29.768V28.4545C65.3299 29.0933 64.835 29.6342 64.2022 30.0042C63.5694 30.3743 62.8291 30.5556 62.0814 30.5236C61.4933 30.5487 60.9068 30.4482 60.3674 30.2298C59.828 30.0115 59.3501 29.6812 58.9708 29.2645C58.1889 28.3641 57.7819 27.234 57.8237 26.0795C57.7786 24.9134 58.1854 23.7709 58.9708 22.8582C59.3488 22.44 59.8264 22.1086 60.3661 21.89C60.9059 21.6715 61.493 21.5717 62.0814 21.5985C62.8214 21.5406 63.5623 21.7009 64.1979 22.0565C64.8335 22.4121 65.3312 22.9448 65.6198 23.5782V21.8146H66.825V29.7322C66.825 32.6112 65.192 34.1583 62.1009 34.1583C60.7492 34.2392 59.4128 33.8549 58.3486 33.0791ZM64.7642 28.5445C65.3597 27.8366 65.6814 26.9644 65.6778 26.0673C65.6743 25.1702 65.3457 24.3001 64.7447 23.5964C64.4432 23.2714 64.0664 23.0136 63.6423 22.8422C63.2182 22.6708 62.7577 22.5902 62.2953 22.6065C60.2541 22.6065 59.0288 24.046 59.0288 26.0795C59.0288 28.1129 60.215 29.5343 62.2953 29.5343C62.7608 29.5525 63.2248 29.4729 63.6524 29.3014C64.08 29.13 64.4601 28.8712 64.7642 28.5445Z" fill="black"/>
<path d="M76.0802 28.9942V22.7683H74.0781V21.8147H76.0802L76.1584 19.3315H77.3049V21.8147H80.4742V22.7683H77.3049V28.7787C77.3049 29.8403 77.908 30.2538 79.0937 30.2538C79.5311 30.2672 79.9687 30.2309 80.3966 30.1458H80.4742V31.0819C79.9152 31.213 79.3396 31.2735 78.7631 31.2618C77.0721 31.2617 76.0802 30.488 76.0802 28.9942Z" fill="black"/>
<path d="M82.9219 31.1354V18.6475H84.1276V23.4338C84.5456 22.7347 85.2054 22.186 86.0011 21.8759C86.7967 21.5658 87.6819 21.5124 88.5143 21.7243C89.3467 21.9361 90.078 22.4009 90.5905 23.0438C91.103 23.6868 91.367 24.4706 91.3401 25.2693V31.1354H90.1349V25.5572C90.1349 23.7579 89.1046 22.6063 87.2578 22.6063C86.8373 22.5909 86.418 22.6571 86.0268 22.8007C85.6356 22.9442 85.2812 23.162 84.9864 23.4399C84.6916 23.7178 84.4629 24.0498 84.315 24.4144C84.167 24.7791 84.1032 25.1683 84.1276 25.5572V31.1354H82.9219Z" fill="black"/>
<path d="M95.3099 29.9841C94.4095 29.0093 93.9377 27.7571 93.988 26.4755C93.9396 25.2087 94.3886 23.9685 95.2518 22.9844C95.6681 22.5296 96.1907 22.1684 96.7802 21.9283C97.3696 21.6882 98.0104 21.5755 98.654 21.5987C101.473 21.5987 102.97 23.3985 102.97 26.2052C102.97 26.4212 102.951 26.6554 102.931 26.889H95.1932C95.1737 27.3522 95.259 27.814 95.4434 28.2449C95.6278 28.6759 95.9074 29.0664 96.2643 29.3916C96.6212 29.7168 97.0474 29.9695 97.5159 30.1334C97.9843 30.2974 98.4845 30.3691 98.9846 30.3438C100.299 30.4045 101.588 29.9918 102.581 29.1922H102.659V30.2901C101.564 31.0505 100.216 31.4324 98.8483 31.3698C98.1843 31.3968 97.5222 31.2864 96.9101 31.0466C96.298 30.8069 95.7513 30.4439 95.3099 29.9841ZM101.784 25.9353C101.784 23.8482 100.754 22.5885 98.6539 22.5885C96.6128 22.5885 95.3294 23.9381 95.1932 25.9353H101.784Z" fill="black"/>
<path d="M111 33.9248V21.8147H112.205V23.7763C112.513 23.1226 113.021 22.5673 113.668 22.1799C114.315 21.7926 115.07 21.5904 115.841 21.5986C116.458 21.5753 117.073 21.6909 117.631 21.9354C118.19 22.1798 118.676 22.546 119.049 23.0025C119.831 24.0131 120.233 25.2329 120.196 26.4754C120.239 27.7186 119.836 28.9399 119.049 29.9479C118.676 30.4044 118.19 30.7705 117.631 31.015C117.073 31.2595 116.458 31.375 115.841 31.3517C115.072 31.3636 114.317 31.165 113.67 30.7807C113.023 30.3965 112.514 29.8438 112.205 29.1922V33.9248H111ZM118.115 29.2284C118.686 28.4076 118.99 27.4517 118.99 26.4752C118.99 25.4987 118.686 24.5428 118.115 23.722C117.831 23.3614 117.455 23.071 117.021 22.8764C116.587 22.6819 116.108 22.5892 115.626 22.6066C115.136 22.5873 114.648 22.6788 114.204 22.8731C113.76 23.0674 113.375 23.3588 113.08 23.722C112.473 24.5301 112.147 25.4909 112.147 26.4752C112.147 27.4595 112.473 28.4203 113.08 29.2284C113.375 29.5916 113.76 29.883 114.204 30.0773C114.648 30.2717 115.136 30.3631 115.626 30.3438C116.108 30.3612 116.587 30.2685 117.021 30.074C117.455 29.8794 117.831 29.589 118.115 29.2284Z" fill="black"/>
<path d="M123.579 29.9841C122.679 29.0093 122.207 27.757 122.258 26.4755C122.209 25.2087 122.658 23.9685 123.521 22.9845C123.937 22.5295 124.46 22.1683 125.049 21.9282C125.639 21.6881 126.279 21.5754 126.923 21.5987C129.742 21.5987 131.239 23.3985 131.239 26.2052C131.239 26.4212 131.22 26.6554 131.2 26.889H123.463C123.443 27.3522 123.528 27.814 123.713 28.245C123.897 28.676 124.176 29.0666 124.533 29.3918C124.89 29.717 125.316 29.9697 125.785 30.1336C126.253 30.2975 126.754 30.3692 127.254 30.3439C128.568 30.4046 129.857 29.9918 130.85 29.1923H130.928V30.2901C129.833 31.0504 128.485 31.4324 127.117 31.3698C126.453 31.3968 125.791 31.2865 125.179 31.0467C124.567 30.807 124.02 30.444 123.579 29.9841ZM130.053 25.9354C130.053 23.8482 129.023 22.5885 126.923 22.5885C124.881 22.5885 123.599 23.9381 123.463 25.9354H130.053Z" fill="black"/>
<path d="M134.759 29.9658C133.88 28.9845 133.398 27.7498 133.398 26.475C133.398 25.2002 133.88 23.9655 134.759 22.9842C135.197 22.5305 135.738 22.1713 136.342 21.9319C136.947 21.6925 137.601 21.5787 138.258 21.5984C138.921 21.5784 139.581 21.692 140.192 21.9313C140.803 22.1706 141.35 22.5298 141.797 22.9842C142.664 23.9704 143.138 25.2032 143.138 26.475C143.138 27.7467 142.664 28.9796 141.797 29.9658C141.354 30.4258 140.808 30.7901 140.196 31.0327C139.585 31.2753 138.923 31.3904 138.258 31.3696C137.599 31.3901 136.943 31.2748 136.338 31.032C135.733 30.7893 135.193 30.4251 134.759 29.9658ZM140.941 29.2282C141.585 28.434 141.933 27.4679 141.933 26.475C141.933 25.4821 141.585 24.516 140.941 23.7218C140.614 23.36 140.203 23.0716 139.738 22.8784C139.273 22.6851 138.767 22.5921 138.258 22.6064C137.754 22.5905 137.253 22.6829 136.795 22.8764C136.336 23.07 135.932 23.3593 135.614 23.7218C134.959 24.5114 134.604 25.4792 134.604 26.475C134.604 27.4707 134.959 28.4386 135.614 29.2282C135.932 29.5906 136.336 29.88 136.795 30.0735C137.253 30.2671 137.754 30.3595 138.258 30.3436C138.767 30.3578 139.273 30.2648 139.738 30.0716C140.203 29.8784 140.614 29.59 140.941 29.2282Z" fill="black"/>
<path d="M145.879 33.9248V21.8147H147.084V23.7763C147.391 23.1226 147.9 22.5673 148.547 22.1799C149.194 21.7926 149.949 21.5904 150.72 21.5986C151.337 21.5753 151.951 21.6909 152.51 21.9354C153.069 22.1798 153.555 22.546 153.927 23.0025C154.709 24.0131 155.112 25.2329 155.074 26.4754C155.118 27.7186 154.715 28.9399 153.927 29.9479C153.555 30.4044 153.069 30.7705 152.51 31.015C151.951 31.2595 151.337 31.375 150.72 31.3517C149.951 31.3636 149.196 31.165 148.549 30.7807C147.902 30.3965 147.393 29.8438 147.084 29.1922V33.9248H145.879ZM152.994 29.2284C153.565 28.4076 153.869 27.4517 153.869 26.4752C153.869 25.4987 153.565 24.5428 152.994 23.722C152.71 23.3614 152.334 23.071 151.9 22.8764C151.466 22.6819 150.987 22.5892 150.505 22.6066C150.015 22.5873 149.527 22.6788 149.083 22.8731C148.639 23.0674 148.253 23.3588 147.959 23.722C147.351 24.5301 147.026 25.4909 147.026 26.4752C147.026 27.4595 147.351 28.4203 147.959 29.2284C148.253 29.5916 148.639 29.883 149.083 30.0773C149.527 30.2717 150.015 30.3631 150.505 30.3438C150.987 30.3612 151.466 30.2685 151.9 30.074C152.334 29.8794 152.71 29.589 152.994 29.2284Z" fill="black"/>
<path d="M157.82 31.1354V18.6475H159.025V31.1354H157.82Z" fill="black"/>
<path d="M163.087 29.9841C162.187 29.0093 161.715 27.757 161.765 26.4755C161.717 25.2087 162.165 23.9685 163.029 22.9845C163.445 22.5295 163.967 22.1683 164.557 21.9282C165.146 21.6881 165.787 21.5754 166.431 21.5987C169.25 21.5987 170.747 23.3985 170.747 26.2052C170.747 26.4212 170.728 26.6554 170.707 26.889H162.971C162.951 27.3522 163.036 27.814 163.22 28.245C163.405 28.676 163.684 29.0666 164.041 29.3918C164.398 29.717 164.824 29.9697 165.293 30.1336C165.761 30.2975 166.261 30.3692 166.761 30.3439C168.076 30.4046 169.365 29.9918 170.358 29.1923H170.436V30.2901C169.341 31.0504 167.993 31.4324 166.625 31.3698C165.961 31.3968 165.299 31.2865 164.687 31.0467C164.075 30.807 163.528 30.444 163.087 29.9841ZM169.56 25.9354C169.56 23.8482 168.531 22.5885 166.431 22.5885C164.389 22.5885 163.107 23.9381 162.971 25.9354H169.56Z" fill="black"/>
</svg>
